<svg xmlns="http://www.w3.org/2000/svg" xmlns:xlink="http://www.w3.org/1999/xlink" viewBox="0 0 123.1 40">
  <defs>
    <style>
      .cls-1 {
        filter: url(#luminosity-noclip);
      }

      .cls-2 {
        mask: url(#mask);
      }

      .cls-3 {
        fill: #fff;
      }
    </style>
    <filter id="luminosity-noclip" x="0" y="0" width="123.1" height="40" filterUnits="userSpaceOnUse" color-interpolation-filters="sRGB">
      <feFlood flood-color="#fff" result="bg"/>
      <feBlend in="SourceGraphic" in2="bg"/>
    </filter>
    <mask id="mask" x="0" y="0" width="123.1" height="40" maskUnits="userSpaceOnUse">
      <path class="cls-1" d="M37,15.56l.48,1.21c-.15.65-.27,1.32-.36,2l-.5-.92A18.69,18.69,0,0,1,37,15.56ZM55.77.48c-.49,0-1,0-1.45.06L54.13,1c.5-.08,1-.15,1.51-.2Zm-2,.12c-.5.06-1,.13-1.48.22L52,1.49c.51-.14,1-.27,1.54-.38ZM48.89,1.8a18.76,18.76,0,0,0-2.18,1L46.52,4a20.17,20.17,0,0,1,1.92-1.09ZM51.59,1a16.86,16.86,0,0,0-1.88.53l-.4,1c.64-.28,1.3-.53,2-.75Zm-7.68,5A20,20,0,0,1,45.6,4.59l.2-1.26A19.1,19.1,0,0,0,44,4.6Zm-.78-.64a21.41,21.41,0,0,0-1.84,1.85l.17,1.38a21,21,0,0,1,1.6-1.79ZM56.32.49l-.11.26c.49,0,1-.05,1.48-.05s1,0,1.53.06A18.5,18.5,0,0,0,56.32.49ZM37.06,23.72l-.23-.43a17.71,17.71,0,0,0,.58,2.39,19.17,19.17,0,0,1-.32-2Zm-.52-4.48c0,.21,0,.43,0,.65,0,.48,0,.95.06,1.42l0,0L37,22c0-.19,0-.37,0-.56,0-.44,0-.88,0-1.31Zm1.69-7.3A15.94,15.94,0,0,0,37.44,14l.47,1.21a19.77,19.77,0,0,1,.74-2Zm2.2-3.73a18.17,18.17,0,0,0-1.58,2.47l.41,1.25a21.48,21.48,0,0,1,1.36-2.26Zm13-6.54c-.52.13-1,.28-1.54.45l-.45,1.07c.53-.24,1.07-.45,1.62-.65Zm2.66,0c-.68.14-1.35.31-2,.5l.32-.77q.95-.19,1.92-.3ZM37.35,20.39l.54,1.13c-.08.73-.14,1.48-.15,2.23l-.48-.7c0-.17,0-.35,0-.53C37.25,21.8,37.28,21.09,37.35,20.39ZM45.62,5.48a22.56,22.56,0,0,1,2.3-1.55L47.5,5.42a22.75,22.75,0,0,0-2,1.55ZM50.36,3.7c-.63.32-1.23.66-1.82,1l.38-1.35c.63-.32,1.28-.62,1.94-.88Zm6.89-2.65c.5,0,1-.05,1.52-.05h.07l-.13.33c-.56,0-1.12.12-1.66.21ZM44.68,7.76a23.35,23.35,0,0,0-2,2.15l-.08-1.64a19,19,0,0,1,2.12-2.09Zm-6,9.87a25,25,0,0,0-.59,2.45l-.55-1.16a20.46,20.46,0,0,1,.57-2.49ZM37.75,25a22.67,22.67,0,0,0,.47,4,21.71,21.71,0,0,1-.89-4.58ZM62.4,1.31c-.56,0-1.12-.07-1.69-.07-.37,0-.74,0-1.1,0l.1-.25A21.69,21.69,0,0,1,62.4,1.31ZM42,10.91c-.49.7-.94,1.42-1.36,2.16l-.36-1.52a21.62,21.62,0,0,1,1.63-2.37ZM40,14.17a21.81,21.81,0,0,0-1,2.34l-.57-1.2a19.82,19.82,0,0,1,1.18-2.71ZM54.81,23c-1,4-3.43,5.73-8.13,5.73-5.54,0-7.58-2.31-6.83-7.68s3.44-7.67,9-7.67c4.69,0,6.64,1.71,6.52,5.72H51c-.08-1.77-.86-2.54-2.6-2.54-2.48,0-3.73,1.36-4.17,4.49s.43,4.49,2.91,4.49A3.18,3.18,0,0,0,50.44,23Zm10.34,5.73c-2.15,0-3.63-.54-4.53-1.69l-.79,1.39H56.41L59.31,7.8h4.37l-1,6.94a7.14,7.14,0,0,1,4.59-1.33c4.52,0,6.11,2.3,5.36,7.67s-3,7.67-7.5,7.68Zm3.16-7.68c.44-3.13-.35-4.49-2.62-4.49S62.25,18,61.81,21.08s.35,4.49,2.62,4.49S67.87,24.21,68.31,21.08Z"/>
    </mask>
  </defs>
  <g id="Layer_2" data-name="Layer 2">
    <g id="Layer_1-2" data-name="Layer 1">
      <g class="cls-2">
        <path class="cls-3" d="M76,20A20,20,0,1,1,56,0,20,20,0,0,1,76,20ZM10.74,23a3.18,3.18,0,0,1-3.31,2.54c-2.48,0-3.35-1.36-2.91-4.49s1.69-4.49,4.17-4.49c1.74,0,2.52.77,2.6,2.54h4.37c.12-4-1.83-5.72-6.52-5.72-5.55,0-8.23,2.3-9,7.67S1.43,28.76,7,28.76c4.7,0,7.12-1.72,8.13-5.73ZM25.83,17.1H28l.51-3.69H26.35a4.85,4.85,0,0,0-3.78,1.65l-.39-1.39H18.76L16.68,28.43h4.37l1-7.38c.39-2.77,1.5-3.95,3.71-3.95Zm7,11.36L34.93,13.7H30.56L28.48,28.46Zm.81-21.31c-1.77,0-2.63.68-2.86,2.3s.45,2.3,2.22,2.3,2.63-.67,2.86-2.3S35.43,7.15,33.66,7.15ZM87.25,28.46h3.43L92.75,13.7H88.41L87.21,22c-.35,2.48-1.41,3.54-3.21,3.54s-2.44-1.15-2-3.9l1.12-8H78.7l-1.12,8c-.7,5,.75,7.09,4.79,7.09a6.51,6.51,0,0,0,4.55-1.48l.37,1.15Zm11.37-2.95,9-9.36.34-2.45H95.41L95,16.65h7.38l-9,9.36L93,28.46h13.11l.41-2.95Zm15.17,0,9-9.36.35-2.45H110.58l-.41,2.95h7.38l-9,9.36-.35,2.45h13.11l.41-2.95Z"/>
      </g>
    </g>
  </g>
</svg>
